<mxfile host="app.diagrams.net" modified="2021-09-17T07:39:35.410Z" agent="5.0 (Windows NT 10.0; Win64; x64) AppleWebKit/537.36 (KHTML, like Gecko) Chrome/93.0.4577.63 Safari/537.36 Edg/93.0.961.47" etag="TwLfYLyX5AWHeWv5vC0n" version="14.9.8" type="github">
  <diagram id="KY-g--1ZZEjQVPpKnd07" name="Page-1">
    <mxGraphModel dx="869" dy="482" grid="1" gridSize="10" guides="1" tooltips="1" connect="1" arrows="1" fold="1" page="1" pageScale="1" pageWidth="850" pageHeight="1100" math="0" shadow="0">
      <root>
        <mxCell id="0" />
        <mxCell id="1" parent="0" />
        <mxCell id="aR7MhCRuUQ9Rry2OOBGL-1" value="TYPES OF ROCKS" style="rounded=1;whiteSpace=wrap;html=1;" vertex="1" parent="1">
          <mxGeometry x="360" y="200" width="80" height="60" as="geometry" />
        </mxCell>
        <mxCell id="aR7MhCRuUQ9Rry2OOBGL-3" value="" style="shape=flexArrow;endArrow=classic;html=1;" edge="1" parent="1">
          <mxGeometry width="50" height="50" relative="1" as="geometry">
            <mxPoint x="440" y="240" as="sourcePoint" />
            <mxPoint x="540" y="240" as="targetPoint" />
            <Array as="points">
              <mxPoint x="470" y="240" />
            </Array>
          </mxGeometry>
        </mxCell>
        <mxCell id="aR7MhCRuUQ9Rry2OOBGL-4" value="" style="shape=flexArrow;endArrow=classic;html=1;exitX=0.5;exitY=1;exitDx=0;exitDy=0;exitPerimeter=0;" edge="1" parent="1" source="aR7MhCRuUQ9Rry2OOBGL-1">
          <mxGeometry width="50" height="50" relative="1" as="geometry">
            <mxPoint x="400" y="280" as="sourcePoint" />
            <mxPoint x="400" y="340" as="targetPoint" />
          </mxGeometry>
        </mxCell>
        <mxCell id="aR7MhCRuUQ9Rry2OOBGL-5" value="" style="shape=flexArrow;endArrow=classic;html=1;" edge="1" parent="1">
          <mxGeometry width="50" height="50" relative="1" as="geometry">
            <mxPoint x="360" y="240" as="sourcePoint" />
            <mxPoint x="260" y="240" as="targetPoint" />
          </mxGeometry>
        </mxCell>
        <mxCell id="aR7MhCRuUQ9Rry2OOBGL-6" value="&lt;i&gt;IGNIOUS ROCK&lt;/i&gt;" style="rounded=1;whiteSpace=wrap;html=1;" vertex="1" parent="1">
          <mxGeometry x="140" y="210" width="120" height="60" as="geometry" />
        </mxCell>
        <mxCell id="aR7MhCRuUQ9Rry2OOBGL-7" value="&lt;i&gt;METAMORPHIC ROCK&lt;/i&gt;" style="rounded=1;whiteSpace=wrap;html=1;" vertex="1" parent="1">
          <mxGeometry x="340" y="340" width="120" height="60" as="geometry" />
        </mxCell>
        <mxCell id="aR7MhCRuUQ9Rry2OOBGL-8" value="&lt;i&gt;SEDEMENTARY ROCK&lt;/i&gt;" style="rounded=1;whiteSpace=wrap;html=1;" vertex="1" parent="1">
          <mxGeometry x="540" y="210" width="120" height="60" as="geometry" />
        </mxCell>
        <mxCell id="aR7MhCRuUQ9Rry2OOBGL-18" value="" style="shape=link;html=1;exitX=0.5;exitY=0;exitDx=0;exitDy=0;entryX=0.75;entryY=0;entryDx=0;entryDy=0;" edge="1" parent="1" source="aR7MhCRuUQ9Rry2OOBGL-6" target="aR7MhCRuUQ9Rry2OOBGL-8">
          <mxGeometry width="100" relative="1" as="geometry">
            <mxPoint x="230" y="160" as="sourcePoint" />
            <mxPoint x="611" y="206" as="targetPoint" />
            <Array as="points">
              <mxPoint x="410" y="60" />
            </Array>
          </mxGeometry>
        </mxCell>
        <mxCell id="aR7MhCRuUQ9Rry2OOBGL-19" value="" style="shape=link;html=1;entryX=0.5;entryY=1;entryDx=0;entryDy=0;exitX=1;exitY=0.5;exitDx=0;exitDy=0;" edge="1" parent="1" source="aR7MhCRuUQ9Rry2OOBGL-7" target="aR7MhCRuUQ9Rry2OOBGL-8">
          <mxGeometry width="100" relative="1" as="geometry">
            <mxPoint x="380" y="230" as="sourcePoint" />
            <mxPoint x="480" y="230" as="targetPoint" />
          </mxGeometry>
        </mxCell>
        <mxCell id="aR7MhCRuUQ9Rry2OOBGL-20" value="" style="shape=link;html=1;entryX=0;entryY=0.5;entryDx=0;entryDy=0;exitX=0.5;exitY=1;exitDx=0;exitDy=0;" edge="1" parent="1" source="aR7MhCRuUQ9Rry2OOBGL-6" target="aR7MhCRuUQ9Rry2OOBGL-7">
          <mxGeometry width="100" relative="1" as="geometry">
            <mxPoint x="380" y="230" as="sourcePoint" />
            <mxPoint x="480" y="230" as="targetPoint" />
          </mxGeometry>
        </mxCell>
        <mxCell id="aR7MhCRuUQ9Rry2OOBGL-21" value="Sedement" style="ellipse;shape=cloud;whiteSpace=wrap;html=1;fillColor=#f5f5f5;strokeColor=#666666;fontColor=#333333;fontStyle=1" vertex="1" parent="1">
          <mxGeometry x="370" y="10" width="80" height="50" as="geometry" />
        </mxCell>
        <mxCell id="aR7MhCRuUQ9Rry2OOBGL-24" style="edgeStyle=orthogonalEdgeStyle;rounded=0;orthogonalLoop=1;jettySize=auto;html=1;" edge="1" parent="1" source="aR7MhCRuUQ9Rry2OOBGL-23">
          <mxGeometry relative="1" as="geometry">
            <mxPoint x="625" y="220" as="targetPoint" />
          </mxGeometry>
        </mxCell>
        <mxCell id="aR7MhCRuUQ9Rry2OOBGL-23" value="Water" style="shape=tape;whiteSpace=wrap;html=1;strokeColor=#6c8ebf;fillColor=#0032FC;fontStyle=1" vertex="1" parent="1">
          <mxGeometry x="590" y="120" width="70" height="70" as="geometry" />
        </mxCell>
        <mxCell id="aR7MhCRuUQ9Rry2OOBGL-28" style="edgeStyle=orthogonalEdgeStyle;rounded=0;orthogonalLoop=1;jettySize=auto;html=1;" edge="1" parent="1" source="aR7MhCRuUQ9Rry2OOBGL-27">
          <mxGeometry relative="1" as="geometry">
            <mxPoint x="460" y="370" as="targetPoint" />
          </mxGeometry>
        </mxCell>
        <mxCell id="aR7MhCRuUQ9Rry2OOBGL-27" value="Fire" style="ellipse;shape=cloud;whiteSpace=wrap;html=1;fillColor=#FF9812;fontStyle=1" vertex="1" parent="1">
          <mxGeometry x="500" y="310" width="80" height="100" as="geometry" />
        </mxCell>
        <mxCell id="aR7MhCRuUQ9Rry2OOBGL-30" style="edgeStyle=orthogonalEdgeStyle;rounded=0;orthogonalLoop=1;jettySize=auto;html=1;entryX=0;entryY=0.75;entryDx=0;entryDy=0;" edge="1" parent="1" source="aR7MhCRuUQ9Rry2OOBGL-29" target="aR7MhCRuUQ9Rry2OOBGL-7">
          <mxGeometry relative="1" as="geometry" />
        </mxCell>
        <mxCell id="aR7MhCRuUQ9Rry2OOBGL-29" value="Lava" style="shape=tape;whiteSpace=wrap;html=1;fillColor=#FF9812;fontStyle=1" vertex="1" parent="1">
          <mxGeometry x="210" y="340" width="90" height="80" as="geometry" />
        </mxCell>
        <mxCell id="aR7MhCRuUQ9Rry2OOBGL-31" value="Volcano" style="ellipse;shape=cloud;whiteSpace=wrap;html=1;fillColor=#FF9812;fontStyle=1" vertex="1" parent="1">
          <mxGeometry x="160" y="70" width="70" height="150" as="geometry" />
        </mxCell>
      </root>
    </mxGraphModel>
  </diagram>
</mxfile>
